# xmcd
#
# Track frame offsets:
#	150
#	16242
#	33722
#	53912
#	77682
#	111685
#	132362
#	148822
#	167472
#	182302
#	203277
#	217475
#
# Disc length: 3176 seconds
#
# Revision: 1
# Processed by: cddbd v1.5.2PL0 Copyright (c) Steve Scherf et al.
# Submitted via: audiograbber 1.83.01
#
DISCID=ab0c660c
DTITLE=Eddie Kendricks - 20th Century Masters - The Millennium Collection - The
DTITLE=Best Of
DYEAR=2000
DGENRE=Oldies
TTITLE0=Keep On Truckin' - Part 1 
TTITLE1=Boogie Down
TTITLE2=Tell Her Love Has Felt The Need
TTITLE3=Happy
TTITLE4=Girl You Need A Change Of Mind   (Long Version)
TTITLE5=Goin' Up In Smoke
TTITLE6=Son Of Sagittarius - (previously unreleased)
TTITLE7=One Tear  
TTITLE8=Shoeshine Boy
TTITLE9=He's A Friend
TTITLE10=Get The Cream Off The Top
TTITLE11=Hall and Oates With David Ruffin and Eddie Kendricks_Nite At The Apollo Li
TTITLE11=ve!-- Way You Do The Things You Do - My Girl  
EXTD=
EXTT0=
EXTT1=
EXTT2=
EXTT3=
EXTT4=
EXTT5=
EXTT6=
EXTT7=
EXTT8=
EXTT9=
EXTT10=
EXTT11=
PLAYORDER=
